# xmcd
# 
# Track frame offsets:
#     150
#     17402
#     35163
#     53972
#     70411
#     92618
#     106391
#     121501
#     138024
#     157018
#     176269
#     197704
# 
# Disc length: 2884
# 
# Revision: 10
# Processed by: cddbd v1.5.2PL0 Copyright (c) Steve Scherf et al.
# Submitted via: fre:ac v1.0.31
# 
DISCID=970b420c
DTITLE=The Beautiful South - Superbi
DYEAR=2006
DGENRE=Alternative
TTITLE0=The Rose of My Cologne
TTITLE1=Manchester
TTITLE2=There Is Song
TTITLE3=The Cat Loves the Mouse
TTITLE4=The Next Verse
TTITLE5=When Romance Is Dead
TTITLE6=Meanwhile
TTITLE7=Space
TTITLE8=Bed of Nails
TTITLE9=Never Lost a Chicken to a Fox
TTITLE10=From Now On
TTITLE11=Tears
EXTD=YEAR: 2006
EXTT0=
EXTT1=
EXTT2=
EXTT3=
EXTT4=
EXTT5=
EXTT6=
EXTT7=
EXTT8=
EXTT9=
EXTT10=
EXTT11=
PLAYORDER=
